<svg xmlns="http://www.w3.org/2000/svg" xmlns:xlink="http://www.w3.org/1999/xlink" width="100" zoomAndPan="magnify" viewBox="0 0 75 74.999997" height="100" preserveAspectRatio="xMidYMid meet" version="1.0"><defs><g/><clipPath id="77f8db861b"><path d="M 12.421875 12.421875 L 62.578125 12.421875 L 62.578125 62.578125 L 12.421875 62.578125 Z M 12.421875 12.421875 " clip-rule="nonzero"/></clipPath><clipPath id="facb395fda"><path d="M 37.5 12.421875 C 23.648438 12.421875 12.421875 23.648438 12.421875 37.5 C 12.421875 51.351562 23.648438 62.578125 37.5 62.578125 C 51.351562 62.578125 62.578125 51.351562 62.578125 37.5 C 62.578125 23.648438 51.351562 12.421875 37.5 12.421875 Z M 37.5 12.421875 " clip-rule="nonzero"/></clipPath></defs><g clip-path="url(#77f8db861b)"><g clip-path="url(#facb395fda)"><path fill="#012a4a" d="M 12.421875 12.421875 L 62.578125 12.421875 L 62.578125 62.578125 L 12.421875 62.578125 Z M 12.421875 12.421875 " fill-opacity="1" fill-rule="nonzero"/></g></g><g fill="#ffffff" fill-opacity="1"><g transform="translate(22.314917, 43.769967)"><g><path d="M 4.046875 -11.59375 L 4.046875 -7.5625 L 9.15625 -7.5625 L 9.15625 -5.546875 L 4.046875 -5.546875 L 4.046875 0 L 1.515625 0 L 1.515625 -13.59375 L 10.09375 -13.59375 L 10.09375 -11.59375 Z M 4.046875 -11.59375 "/></g></g></g><g fill="#ffffff" fill-opacity="1"><g transform="translate(32.961408, 43.769967)"><g><path d="M 6.703125 -4.828125 C 6.703125 -4.066406 6.609375 -3.378906 6.421875 -2.765625 C 6.234375 -2.148438 5.953125 -1.625 5.578125 -1.1875 C 5.203125 -0.757812 4.734375 -0.425781 4.171875 -0.1875 C 3.617188 0.0390625 2.972656 0.15625 2.234375 0.15625 C 1.890625 0.15625 1.554688 0.132812 1.234375 0.09375 C 0.910156 0.0507812 0.566406 -0.015625 0.203125 -0.109375 C 0.222656 -0.359375 0.242188 -0.609375 0.265625 -0.859375 C 0.296875 -1.109375 0.320312 -1.359375 0.34375 -1.609375 C 0.351562 -1.742188 0.40625 -1.851562 0.5 -1.9375 C 0.59375 -2.019531 0.722656 -2.0625 0.890625 -2.0625 C 0.992188 -2.0625 1.132812 -2.039062 1.3125 -2 C 1.488281 -1.957031 1.707031 -1.9375 1.96875 -1.9375 C 2.320312 -1.9375 2.632812 -1.988281 2.90625 -2.09375 C 3.1875 -2.195312 3.421875 -2.359375 3.609375 -2.578125 C 3.796875 -2.804688 3.9375 -3.097656 4.03125 -3.453125 C 4.125 -3.816406 4.171875 -4.257812 4.171875 -4.78125 L 4.171875 -13.59375 L 6.703125 -13.59375 Z M 6.703125 -4.828125 "/></g></g></g><g fill="#ffffff" fill-opacity="1"><g transform="translate(41.040322, 43.769967)"><g><path d="M 5.9375 -6.765625 C 6.394531 -6.765625 6.796875 -6.820312 7.140625 -6.9375 C 7.492188 -7.050781 7.785156 -7.21875 8.015625 -7.4375 C 8.242188 -7.65625 8.410156 -7.914062 8.515625 -8.21875 C 8.628906 -8.53125 8.6875 -8.878906 8.6875 -9.265625 C 8.6875 -9.628906 8.628906 -9.957031 8.515625 -10.25 C 8.410156 -10.539062 8.242188 -10.789062 8.015625 -11 C 7.785156 -11.207031 7.5 -11.363281 7.15625 -11.46875 C 6.8125 -11.582031 6.40625 -11.640625 5.9375 -11.640625 L 4.046875 -11.640625 L 4.046875 -6.765625 Z M 5.9375 -13.59375 C 6.84375 -13.59375 7.628906 -13.488281 8.296875 -13.28125 C 8.960938 -13.070312 9.507812 -12.773438 9.9375 -12.390625 C 10.375 -12.003906 10.695312 -11.546875 10.90625 -11.015625 C 11.113281 -10.484375 11.21875 -9.898438 11.21875 -9.265625 C 11.21875 -8.609375 11.109375 -8.003906 10.890625 -7.453125 C 10.671875 -6.898438 10.34375 -6.425781 9.90625 -6.03125 C 9.46875 -5.644531 8.914062 -5.335938 8.25 -5.109375 C 7.59375 -4.890625 6.820312 -4.78125 5.9375 -4.78125 L 4.046875 -4.78125 L 4.046875 0 L 1.515625 0 L 1.515625 -13.59375 Z M 5.9375 -13.59375 "/></g></g></g></svg>